<?xml version="1.0" encoding="utf-8"?>
<!-- Generator: Adobe Illustrator 26.3.1, SVG Export Plug-In . SVG Version: 6.00 Build 0)  -->
<svg version="1.1"
	 id="Livello_1" xmlns:rdf="http://www.w3.org/1999/02/22-rdf-syntax-ns#" xmlns:cc="http://creativecommons.org/ns#" xmlns:dc="http://purl.org/dc/elements/1.1/"
	 xmlns="http://www.w3.org/2000/svg" xmlns:xlink="http://www.w3.org/1999/xlink" x="0px" y="0px" viewBox="0 0 740 280"
	 style="enable-background:new 0 0 740 280;" xml:space="preserve">
<style type="text/css">
	.st0{fill:#FF6635;}
	.st1{fill:#357EC0;}
	.st2{fill:#C8C8C8;}
</style>
<g>
	<path class="st0" d="M121.4,89.6H90.3c-1.2,0-2.5-0.2-3.9-0.6c-1.4-0.4-2.7-1.1-3.9-2.1c-1.2-1-2.2-2.2-3-3.8
		c-0.8-1.5-1.2-3.4-1.2-5.7V46.3c0-0.6,0.1-1.2,0.3-1.7c0.2-0.5,0.5-1,0.9-1.4c0.4-0.4,0.8-0.7,1.4-0.9c0.5-0.2,1.1-0.3,1.7-0.3
		h38.9v8.6H86.8v26.9c0,1.1,0.3,2,0.9,2.6s1.5,0.9,2.6,0.9h31.1V89.6z M117.6,70.1H90.3v-8.7h27.3V70.1z"/>
	<path class="st0" d="M168.4,89.6h-8.6V69.6c0-1.1-0.2-2.1-0.6-3c-0.4-0.9-0.9-1.7-1.6-2.3c-0.7-0.6-1.4-1.1-2.3-1.5
		c-0.9-0.3-1.9-0.5-2.9-0.5h-15.1v27.3h-8.6V58c0-0.6,0.1-1.2,0.3-1.7c0.2-0.5,0.5-1,0.9-1.4c0.4-0.4,0.9-0.7,1.4-0.9
		c0.5-0.2,1.1-0.3,1.7-0.3h19.5c1.1,0,2.2,0.1,3.4,0.4c1.2,0.2,2.4,0.6,3.6,1.2c1.2,0.5,2.3,1.2,3.4,2.1c1.1,0.8,2,1.8,2.9,3
		c0.8,1.2,1.5,2.6,2,4.1c0.5,1.5,0.7,3.3,0.7,5.2V89.6z"/>
	<path class="st0" d="M207.3,62.3h-19.4c-1.2,0-2.1,0.3-2.7,0.9c-0.6,0.6-0.9,1.4-0.9,2.6v23.8h-8.6V65.8c0-1.5,0.2-2.8,0.6-4
		c0.4-1.2,0.9-2.2,1.5-3.1s1.4-1.7,2.2-2.3c0.8-0.6,1.7-1.1,2.6-1.5s1.8-0.7,2.7-0.9c0.9-0.2,1.8-0.3,2.6-0.3h19.5V62.3z"/>
	<path class="st0" d="M221.8,46.3h-8.6v-7.8h8.6V46.3z M221.8,89.6h-8.6V53.7h8.6V89.6z"/>
	<path class="st0" d="M264.8,89.6h-23.4c-1.2,0-2.5-0.2-3.9-0.6c-1.4-0.4-2.7-1.1-3.9-2.1c-1.2-1-2.2-2.2-3-3.8
		c-0.8-1.5-1.2-3.4-1.2-5.7V65.8c0-0.8,0.1-1.7,0.3-2.6c0.2-0.9,0.5-1.8,0.9-2.7s0.9-1.8,1.5-2.6c0.6-0.8,1.4-1.5,2.3-2.2
		c0.9-0.6,1.9-1.1,3.1-1.5c1.2-0.4,2.5-0.6,4-0.6h23.4v8.6h-23.4c-1.1,0-2,0.3-2.6,0.9c-0.6,0.6-0.9,1.5-0.9,2.7v11.6
		c0,1.1,0.3,2,0.9,2.6s1.5,0.9,2.6,0.9h23.3V89.6z"/>
	<path class="st0" d="M280.7,89.6h-8.6V38.5h8.6V89.6z M311.9,89.6h-8.6V65.8c0-1.1-0.3-2-0.9-2.6c-0.6-0.6-1.4-0.9-2.6-0.9h-15.6
		v-8.6h15.6c0.8,0,1.7,0.1,2.6,0.3c0.9,0.2,1.8,0.5,2.7,0.9s1.8,0.9,2.6,1.5c0.8,0.6,1.5,1.4,2.2,2.3c0.6,0.9,1.1,1.9,1.5,3.1
		c0.4,1.2,0.6,2.5,0.6,4V89.6z"/>
	<path class="st0" d="M358.4,65.6c0,1.2-0.2,2.5-0.6,3.9c-0.4,1.4-1.1,2.7-2,3.9c-0.9,1.2-2.2,2.2-3.7,3c-1.5,0.8-3.4,1.2-5.5,1.2
		h-15.6v-8.2h15.6c1.2,0,2.1-0.4,2.7-1.1c0.6-0.7,1-1.6,1-2.7c0-1.1-0.4-2-1.1-2.7c-0.7-0.6-1.6-1-2.6-1h-15.6
		c-1.2,0-2.1,0.4-2.7,1.1c-0.6,0.7-1,1.6-1,2.7v12.1c0,1.2,0.4,2,1.1,2.7c0.7,0.6,1.6,1,2.7,1h15.5v8.2h-15.6
		c-1.2,0-2.5-0.2-3.9-0.6c-1.4-0.4-2.7-1.1-3.9-2c-1.2-0.9-2.2-2.2-3-3.7c-0.8-1.5-1.2-3.4-1.2-5.5V65.6c0-1.2,0.2-2.5,0.6-3.9
		c0.4-1.4,1.1-2.7,2-3.9c0.9-1.2,2.2-2.2,3.7-3c1.5-0.8,3.4-1.2,5.5-1.2h15.6c1.2,0,2.5,0.2,3.9,0.6c1.4,0.4,2.7,1.1,3.9,2
		c1.2,0.9,2.2,2.2,3,3.7C358,61.5,358.4,63.4,358.4,65.6z"/>
	<path class="st0" d="M403.6,77.4c0,1.5-0.2,2.8-0.6,4c-0.4,1.2-0.9,2.2-1.5,3.1c-0.6,0.9-1.3,1.7-2.2,2.3c-0.8,0.6-1.7,1.1-2.6,1.5
		s-1.8,0.7-2.7,0.9c-0.9,0.2-1.8,0.3-2.6,0.3h-15.6c-1.5,0-2.8-0.2-4-0.6c-1.2-0.4-2.2-0.9-3.1-1.5s-1.7-1.4-2.3-2.2
		c-0.6-0.8-1.1-1.7-1.5-2.6s-0.7-1.8-0.9-2.7c-0.2-0.9-0.3-1.8-0.3-2.6V65.8c0-2.2,0.4-4.1,1.2-5.6c0.8-1.5,1.8-2.8,3-3.8
		c1.2-1,2.5-1.7,3.9-2.1c1.4-0.4,2.7-0.6,3.9-0.6h15.6v8.6h-15.5c-1.2,0-2,0.3-2.6,0.9c-0.6,0.6-0.9,1.4-0.9,2.6v11.6
		c0,1.2,0.3,2.1,0.9,2.7c0.6,0.6,1.4,0.9,2.6,0.9h15.6c1.2,0,2-0.3,2.6-0.9c0.6-0.6,0.9-1.5,0.9-2.6V38.5h8.6V77.4z"/>
	<path class="st1" d="M477.9,89.6h-31.1c-1.2,0-2.5-0.2-3.9-0.6c-1.4-0.4-2.7-1.1-3.9-2.1c-1.2-1-2.2-2.2-3-3.8
		c-0.8-1.5-1.2-3.4-1.2-5.7V46.3c0-0.6,0.1-1.2,0.3-1.7c0.2-0.5,0.5-1,0.9-1.4c0.4-0.4,0.8-0.7,1.4-0.9c0.5-0.2,1.1-0.3,1.7-0.3
		h38.9v8.6h-34.6v26.9c0,1.1,0.3,2,0.9,2.6s1.5,0.9,2.6,0.9h31.1V89.6z M474,70.1h-27.3v-8.7H474V70.1z"/>
	<path class="st1" d="M524.3,77.4c0,1.5-0.2,2.8-0.6,4c-0.4,1.2-0.9,2.2-1.5,3.1c-0.6,0.9-1.3,1.7-2.2,2.3c-0.8,0.6-1.7,1.1-2.6,1.5
		s-1.8,0.7-2.7,0.9c-0.9,0.2-1.8,0.3-2.6,0.3h-15.6c-1.5,0-2.8-0.2-4-0.6c-1.2-0.4-2.2-0.9-3.1-1.5s-1.7-1.4-2.3-2.2
		c-0.6-0.8-1.1-1.7-1.5-2.6s-0.7-1.8-0.9-2.7c-0.2-0.9-0.3-1.8-0.3-2.6V65.8c0-2.2,0.4-4.1,1.2-5.6c0.8-1.5,1.8-2.8,3-3.8
		c1.2-1,2.5-1.7,3.9-2.1c1.4-0.4,2.7-0.6,3.9-0.6h15.6v8.6h-15.5c-1.2,0-2,0.3-2.6,0.9c-0.6,0.6-0.9,1.4-0.9,2.6v11.6
		c0,1.2,0.3,2.1,0.9,2.7c0.6,0.6,1.4,0.9,2.6,0.9h15.6c1.2,0,2-0.3,2.6-0.9c0.6-0.6,0.9-1.5,0.9-2.6V38.5h8.6V77.4z"/>
	<path class="st1" d="M541.3,46.3h-8.6v-7.8h8.6V46.3z M541.3,89.6h-8.6V53.7h8.6V89.6z"/>
	<path class="st1" d="M582.2,62.3h-15.1v27.3h-8.7V62.3h-11.2v-8.6h11.2V42h8.7v11.7h15.1V62.3z"/>
	<path class="st1" d="M626.8,77.4c0,1.5-0.2,2.8-0.6,4c-0.4,1.2-0.9,2.2-1.5,3.1c-0.6,0.9-1.3,1.7-2.2,2.3c-0.8,0.6-1.7,1.1-2.6,1.5
		s-1.8,0.7-2.7,0.9c-0.9,0.2-1.8,0.3-2.6,0.3h-15.6c-1.2,0-2.5-0.2-3.9-0.6c-1.4-0.4-2.7-1.1-3.9-2.1c-1.2-1-2.2-2.2-3-3.8
		c-0.8-1.5-1.2-3.4-1.2-5.7V65.8c0-2.2,0.4-4.1,1.2-5.6c0.8-1.5,1.8-2.8,3-3.8c1.2-1,2.5-1.7,3.9-2.1c1.4-0.4,2.7-0.6,3.9-0.6h15.6
		c2.2,0,4.1,0.4,5.6,1.2c1.5,0.8,2.8,1.8,3.8,3c1,1.2,1.6,2.5,2.1,3.9c0.4,1.4,0.6,2.7,0.6,4V77.4z M618.1,65.8
		c0-1.2-0.3-2.1-0.9-2.7c-0.6-0.6-1.5-0.9-2.6-0.9h-15.5c-1.2,0-2,0.3-2.6,0.9c-0.6,0.6-0.9,1.4-0.9,2.6v11.7c0,1.1,0.3,2,0.9,2.6
		s1.5,0.9,2.6,0.9h15.5c1.2,0,2-0.3,2.6-0.9c0.6-0.6,0.9-1.5,0.9-2.6V65.8z"/>
	<path class="st1" d="M665.5,62.3h-19.4c-1.2,0-2.1,0.3-2.7,0.9c-0.6,0.6-0.9,1.4-0.9,2.6v23.8h-8.6V65.8c0-1.5,0.2-2.8,0.6-4
		c0.4-1.2,0.9-2.2,1.5-3.1s1.4-1.7,2.2-2.3c0.8-0.6,1.7-1.1,2.6-1.5s1.8-0.7,2.7-0.9c0.9-0.2,1.8-0.3,2.6-0.3h19.5V62.3z"/>
</g>
<g>
	<path class="st2" d="M33.1,122.3h3.5l5.3,16.3h-3.1l-1.2-4.4h-5.4l-1.2,4.4h-3L33.1,122.3z M32.7,132h4.1l-0.5-1.9
		c-0.5-1.7-1-3.6-1.5-5.4h-0.1c-0.4,1.8-0.9,3.6-1.4,5.4L32.7,132z"/>
	<path class="st2" d="M42.9,132.5c0-4,2.5-6.5,5.2-6.5c1.4,0,2.2,0.5,3.2,1.4l-0.1-2V121h2.9v17.6h-2.4l-0.2-1.3h-0.1
		c-0.9,0.9-2.1,1.6-3.4,1.6C44.9,138.9,42.9,136.6,42.9,132.5z M51.2,135.2v-5.6c-0.8-0.7-1.6-1-2.4-1c-1.5,0-2.8,1.4-2.8,4
		c0,2.6,1,4,2.7,4C49.6,136.5,50.4,136.1,51.2,135.2z"/>
	<path class="st2" d="M57,132.5c0-4,2.5-6.5,5.2-6.5c1.4,0,2.2,0.5,3.2,1.4l-0.1-2V121h2.9v17.6h-2.4l-0.2-1.3h-0.1
		c-0.9,0.9-2.1,1.6-3.4,1.6C59,138.9,57,136.6,57,132.5z M65.3,135.2v-5.6c-0.8-0.7-1.6-1-2.4-1c-1.5,0-2.8,1.4-2.8,4
		c0,2.6,1,4,2.7,4C63.7,136.5,64.5,136.1,65.3,135.2z"/>
	<path class="st2" d="M76.2,126.4h2.4l0.2,2.2h0.1c0.9-1.6,2.2-2.5,3.5-2.5c0.6,0,1,0.1,1.4,0.2l-0.6,2.5c-0.4-0.1-0.7-0.1-1.2-0.1
		c-1,0-2.1,0.6-2.9,2.5v7.4h-3V126.4z"/>
	<path class="st2" d="M85.3,122.6c0-1,0.7-1.7,1.8-1.7s1.8,0.7,1.8,1.7c0,1-0.7,1.7-1.8,1.7S85.3,123.6,85.3,122.6z M85.6,126.4h3
		v12.3h-3V126.4z"/>
	<path class="st2" d="M91.3,132.5c0-4.1,2.9-6.5,6.2-6.5c1.5,0,2.7,0.6,3.6,1.4l-1.4,1.8c-0.6-0.5-1.2-0.8-2-0.8
		c-1.9,0-3.3,1.6-3.3,4c0,2.4,1.3,4,3.2,4c1,0,1.8-0.4,2.5-1l1.2,1.9c-1.2,1-2.6,1.5-4,1.5C93.9,138.9,91.3,136.6,91.3,132.5z"/>
	<path class="st2" d="M103.7,121h3v4.5l-0.1,2.3c1-0.9,2.2-1.8,3.9-1.8c2.6,0,3.8,1.8,3.8,4.9v7.7h-2.9v-7.3c0-2-0.6-2.7-1.9-2.7
		c-1.1,0-1.8,0.5-2.7,1.5v8.5h-3V121z"/>
	<path class="st2" d="M122.4,128.7h-1.6v-2.2l1.6-0.1v-1.2c0-2.5,1.2-4.4,4.1-4.4c0.9,0,1.7,0.2,2.3,0.4l-0.6,2.1
		c-0.5-0.1-0.9-0.2-1.3-0.2c-1,0-1.5,0.6-1.5,2v1.2h2.4v2.3h-2.4v9.9h-2.9V128.7z"/>
	<path class="st2" d="M128.8,132.5c0-4.1,2.8-6.5,5.9-6.5c3,0,5.8,2.4,5.8,6.5c0,4.1-2.8,6.4-5.8,6.4
		C131.6,138.9,128.8,136.6,128.8,132.5z M137.5,132.5c0-2.4-1-4-2.8-4c-1.8,0-2.8,1.6-2.8,4c0,2.4,1,4,2.8,4
		C136.5,136.6,137.5,135,137.5,132.5z"/>
	<path class="st2" d="M143.4,126.4h2.4l0.2,2.2h0.1c0.9-1.6,2.2-2.5,3.5-2.5c0.6,0,1,0.1,1.4,0.2l-0.6,2.5c-0.4-0.1-0.7-0.1-1.2-0.1
		c-1,0-2.1,0.6-2.9,2.5v7.4h-3V126.4z"/>
	<path class="st2" d="M152.8,126.4h2.4l0.2,1.7h0.1c1-1.1,2.2-2,3.8-2c1.8,0,2.8,0.8,3.4,2.2c1.2-1.2,2.4-2.2,3.9-2.2
		c2.6,0,3.8,1.8,3.8,4.9v7.7h-3v-7.3c0-2-0.6-2.7-1.8-2.7c-0.8,0-1.6,0.5-2.5,1.5v8.5h-2.9v-7.3c0-2-0.6-2.7-1.8-2.7
		c-0.8,0-1.6,0.5-2.5,1.5v8.5h-3V126.4z"/>
	<path class="st2" d="M173.2,135.4c0-2.7,2.1-4,7.2-4.6c-0.1-1.2-0.5-2.3-2.2-2.3c-1.2,0-2.3,0.5-3.4,1.1l-1-1.9
		c1.4-0.8,3.1-1.6,5-1.6c3,0,4.6,1.9,4.6,5.3v7.3H181l-0.2-1.3h-0.1c-1.1,0.9-2.3,1.6-3.7,1.6C174.7,138.9,173.2,137.5,173.2,135.4z
		 M180.4,135.4v-2.6c-3.3,0.4-4.3,1.1-4.3,2.4c0,1,0.7,1.4,1.7,1.4C178.8,136.6,179.5,136.2,180.4,135.4z"/>
	<path class="st2" d="M186.8,134.5v-5.8h-1.7v-2.2l1.9-0.1l0.4-3.8h2.4v3.8h3.1v2.3h-3.1v5.8c0,1.4,0.6,2.1,1.7,2.1
		c0.4,0,0.8-0.1,1.3-0.2l0.5,2.1c-0.6,0.3-1.5,0.5-2.5,0.5C187.9,138.9,186.8,137.2,186.8,134.5z"/>
	<path class="st2" d="M195.4,134.5v-5.8h-1.7v-2.2l1.9-0.1l0.4-3.8h2.4v3.8h3.1v2.3h-3.1v5.8c0,1.4,0.6,2.1,1.7,2.1
		c0.4,0,0.8-0.1,1.3-0.2l0.5,2.1c-0.6,0.3-1.5,0.5-2.5,0.5C196.5,138.9,195.4,137.2,195.4,134.5z"/>
	<path class="st2" d="M203.8,122.6c0-1,0.7-1.7,1.8-1.7s1.8,0.7,1.8,1.7c0,1-0.7,1.7-1.8,1.7S203.8,123.6,203.8,122.6z M204,126.4h3
		v12.3h-3V126.4z"/>
	<path class="st2" d="M210.6,126.4h2.4l0.2,1.6h0.1c1.1-1,2.3-1.9,4-1.9c2.6,0,3.8,1.8,3.8,4.9v7.7h-2.9v-7.3c0-2-0.6-2.7-1.9-2.7
		c-1.1,0-1.8,0.5-2.7,1.5v8.5h-3V126.4z"/>
	<path class="st2" d="M223.8,140.9c0-1,0.6-1.9,1.8-2.6v-0.1c-0.6-0.4-1.1-1-1.1-2c0-0.9,0.6-1.8,1.4-2.3v-0.1
		c-0.8-0.6-1.6-1.8-1.6-3.2c0-2.8,2.3-4.4,4.9-4.4c0.7,0,1.3,0.1,1.8,0.3h4.4v2.2h-2.2c0.4,0.5,0.7,1.2,0.7,2c0,2.7-2.1,4.2-4.7,4.2
		c-0.5,0-1.1-0.1-1.6-0.3c-0.3,0.3-0.6,0.6-0.6,1.1c0,0.7,0.5,1.1,2,1.1h2.2c2.9,0,4.5,0.9,4.5,3c0,2.4-2.5,4.3-6.6,4.3
		C226,144.1,223.8,143,223.8,140.9z M232.7,140.2c0-0.9-0.8-1.2-2.1-1.2h-1.6c-0.7,0-1.2-0.1-1.7-0.2c-0.6,0.5-0.9,1-0.9,1.6
		c0,1.1,1.2,1.7,3.1,1.7C231.3,142.1,232.7,141.2,232.7,140.2z M231.2,130.5c0-1.5-0.9-2.4-2.1-2.4s-2.1,0.8-2.1,2.4
		c0,1.5,0.9,2.4,2.1,2.4S231.2,132,231.2,130.5z"/>
	<path class="st2" d="M237,141.6c1.6-0.6,2.6-1.8,2.5-3c-0.1,0-0.1,0-0.2,0c-1,0-1.9-0.6-1.9-1.8c0-1.1,0.9-1.8,1.9-1.8
		c1.4,0,2.2,1.1,2.2,3c0,2.5-1.4,4.4-3.9,5.2L237,141.6z"/>
	<path class="st2" d="M249.3,134.5v-5.8h-1.7v-2.2l1.9-0.1l0.4-3.8h2.4v3.8h3.1v2.3h-3.1v5.8c0,1.4,0.6,2.1,1.7,2.1
		c0.4,0,0.8-0.1,1.3-0.2l0.5,2.1c-0.6,0.3-1.5,0.5-2.5,0.5C250.4,138.9,249.3,137.2,249.3,134.5z"/>
	<path class="st2" d="M256.8,132.5c0-4.1,2.8-6.5,5.9-6.5c3,0,5.8,2.4,5.8,6.5c0,4.1-2.8,6.4-5.8,6.4
		C259.6,138.9,256.8,136.6,256.8,132.5z M265.5,132.5c0-2.4-1-4-2.8-4c-1.8,0-2.8,1.6-2.8,4c0,2.4,1,4,2.8,4
		C264.4,136.6,265.5,135,265.5,132.5z"/>
	<path class="st2" d="M270.5,132.5c0-4.1,2.8-6.5,5.9-6.5c3,0,5.8,2.4,5.8,6.5c0,4.1-2.8,6.4-5.8,6.4
		C273.3,138.9,270.5,136.6,270.5,132.5z M279.2,132.5c0-2.4-1-4-2.8-4c-1.8,0-2.8,1.6-2.8,4c0,2.4,1,4,2.8,4
		C278.1,136.6,279.2,135,279.2,132.5z"/>
	<path class="st2" d="M285,135.4V121h3v14.6c0,0.7,0.3,1,0.6,1c0.1,0,0.2,0,0.4,0l0.4,2.2c-0.4,0.2-0.9,0.3-1.5,0.3
		C285.8,138.9,285,137.6,285,135.4z"/>
	<path class="st2" d="M291.2,141.6c1.6-0.6,2.6-1.8,2.5-3c-0.1,0-0.1,0-0.2,0c-1,0-1.9-0.6-1.9-1.8c0-1.1,0.9-1.8,1.9-1.8
		c1.4,0,2.2,1.1,2.2,3c0,2.5-1.4,4.4-3.9,5.2L291.2,141.6z"/>
	<path class="st2" d="M302.4,135.4c0-2.7,2.1-4,7.2-4.6c-0.1-1.2-0.6-2.3-2.2-2.3c-1.2,0-2.3,0.5-3.4,1.1l-1-1.9
		c1.3-0.8,3.1-1.6,5-1.6c3,0,4.6,1.9,4.6,5.3v7.3h-2.4l-0.2-1.3h-0.1c-1.1,0.9-2.3,1.6-3.7,1.6C303.9,138.9,302.4,137.5,302.4,135.4
		z M309.6,135.4v-2.6c-3.3,0.4-4.3,1.1-4.3,2.4c0,1,0.7,1.4,1.7,1.4C307.9,136.6,308.7,136.2,309.6,135.4z"/>
	<path class="st2" d="M315.9,126.4h2.4l0.2,1.6h0.1c1.1-1,2.3-1.9,4-1.9c2.6,0,3.8,1.8,3.8,4.9v7.7h-2.9v-7.3c0-2-0.6-2.7-1.9-2.7
		c-1.1,0-1.8,0.5-2.7,1.5v8.5h-3V126.4z"/>
	<path class="st2" d="M329.2,132.5c0-4,2.5-6.5,5.2-6.5c1.4,0,2.2,0.5,3.2,1.4l-0.1-2V121h2.9v17.6h-2.4l-0.2-1.3h-0.1
		c-0.9,0.9-2.1,1.6-3.4,1.6C331.2,138.9,329.2,136.6,329.2,132.5z M337.5,135.2v-5.6c-0.8-0.7-1.6-1-2.4-1c-1.5,0-2.8,1.4-2.8,4
		c0,2.6,1,4,2.7,4C335.9,136.5,336.7,136.1,337.5,135.2z"/>
	<path class="st2" d="M347.5,132.5c0-4.1,2.9-6.5,6.2-6.5c1.5,0,2.7,0.6,3.6,1.4l-1.4,1.8c-0.6-0.5-1.2-0.8-2-0.8
		c-1.9,0-3.3,1.6-3.3,4c0,2.4,1.3,4,3.2,4c1,0,1.8-0.4,2.5-1l1.2,1.9c-1.2,1-2.6,1.5-4,1.5C350.1,138.9,347.5,136.6,347.5,132.5z"/>
	<path class="st2" d="M358.5,132.5c0-4.1,2.8-6.5,5.9-6.5c3,0,5.8,2.4,5.8,6.5c0,4.1-2.8,6.4-5.8,6.4
		C361.3,138.9,358.5,136.6,358.5,132.5z M367.2,132.5c0-2.4-1-4-2.8-4s-2.8,1.6-2.8,4c0,2.4,1,4,2.8,4S367.2,135,367.2,132.5z"/>
	<path class="st2" d="M373,126.4h2.4l0.2,1.6h0.1c1.1-1,2.3-1.9,4-1.9c2.6,0,3.8,1.8,3.8,4.9v7.7h-2.9v-7.3c0-2-0.6-2.7-1.9-2.7
		c-1.1,0-1.8,0.5-2.8,1.5v8.5h-3V126.4z"/>
	<path class="st2" d="M387.5,134.5v-5.8h-1.7v-2.2l1.9-0.1l0.3-3.8h2.5v3.8h3.1v2.3h-3.1v5.8c0,1.4,0.6,2.1,1.7,2.1
		c0.4,0,0.9-0.1,1.3-0.2l0.5,2.1c-0.6,0.3-1.5,0.5-2.5,0.5C388.5,138.9,387.5,137.2,387.5,134.5z"/>
	<path class="st2" d="M396.1,126.4h2.4l0.2,2.2h0.1c0.9-1.6,2.2-2.5,3.5-2.5c0.6,0,1,0.1,1.4,0.2l-0.6,2.5c-0.4-0.1-0.7-0.1-1.2-0.1
		c-1,0-2.1,0.6-2.9,2.5v7.4h-3V126.4z"/>
	<path class="st2" d="M404.4,132.5c0-4.1,2.8-6.5,5.9-6.5c3,0,5.8,2.4,5.8,6.5c0,4.1-2.8,6.4-5.8,6.4
		C407.2,138.9,404.4,136.6,404.4,132.5z M413.1,132.5c0-2.4-1-4-2.8-4s-2.8,1.6-2.8,4c0,2.4,1,4,2.8,4S413.1,135,413.1,132.5z"/>
	<path class="st2" d="M419,135.4V121h3v14.6c0,0.7,0.3,1,0.6,1c0.2,0,0.2,0,0.5,0l0.3,2.2c-0.3,0.2-0.8,0.3-1.5,0.3
		C419.7,138.9,419,137.6,419,135.4z"/>
	<path class="st2" d="M424.6,137.2l1.3-1.7c1.1,0.9,2.2,1.2,3.4,1.2c1.3,0,1.9-0.6,1.9-1.4c0-1-1.2-1.4-2.6-1.9
		c-1.8-0.6-3.4-1.7-3.4-3.6c0-2.1,1.8-3.7,4.5-3.7c1.7,0,3.1,0.6,4.1,1.5l-1.3,1.7c-0.9-0.6-1.8-0.9-2.7-0.9c-1.2,0-1.8,0.6-1.8,1.3
		c0,0.9,0.9,1.2,2.4,1.8c1.9,0.6,3.6,1.6,3.6,3.7c0,2.1-1.7,3.8-4.8,3.8C427.5,138.9,425.8,138.3,424.6,137.2z"/>
	<path class="st2" d="M441.3,134.5v-5.8h-1.7v-2.2l1.9-0.1l0.3-3.8h2.4v3.8h3.1v2.3h-3.1v5.8c0,1.4,0.6,2.1,1.7,2.1
		c0.4,0,0.9-0.1,1.3-0.2l0.5,2.1c-0.6,0.3-1.5,0.5-2.5,0.5C442.3,138.9,441.3,137.2,441.3,134.5z"/>
	<path class="st2" d="M448.7,132.5c0-4.1,2.8-6.5,5.9-6.5c3,0,5.8,2.4,5.8,6.5c0,4.1-2.8,6.4-5.8,6.4
		C451.5,138.9,448.7,136.6,448.7,132.5z M457.4,132.5c0-2.4-1-4-2.8-4s-2.8,1.6-2.8,4c0,2.4,1,4,2.8,4S457.4,135,457.4,132.5z"/>
	<path class="st2" d="M468,134.5v-5.8h-1.7v-2.2l1.9-0.1l0.3-3.8h2.4v3.8h3.1v2.3h-3.1v5.8c0,1.4,0.6,2.1,1.7,2.1
		c0.4,0,0.9-0.1,1.3-0.2l0.5,2.1c-0.6,0.3-1.5,0.5-2.5,0.5C469,138.9,468,137.2,468,134.5z"/>
	<path class="st2" d="M476.6,121h3v4.5l-0.1,2.3c1-0.9,2.2-1.8,3.9-1.8c2.6,0,3.8,1.8,3.8,4.9v7.7h-2.9v-7.3c0-2-0.6-2.7-1.9-2.7
		c-1.1,0-1.8,0.5-2.8,1.5v8.5h-3V121z"/>
	<path class="st2" d="M489.8,132.5c0-4,2.8-6.4,5.7-6.4c3.3,0,5.1,2.4,5.1,5.8c0,0.6,0,1-0.1,1.5h-7.7c0.3,2,1.6,3.2,3.5,3.2
		c1,0,2-0.3,2.8-0.8l1,1.8c-1.1,0.8-2.6,1.3-4.2,1.3C492.4,138.9,489.8,136.6,489.8,132.5z M498,131.2c0-1.8-0.8-2.8-2.4-2.8
		c-1.4,0-2.6,1-2.8,2.8H498z"/>
	<path class="st2" d="M507,130.5c0-5.3,3.3-8.5,7.5-8.5c2,0,3.7,0.9,4.7,2.1l-1.6,1.8c-0.8-0.8-1.8-1.3-3.1-1.3
		c-2.6,0-4.5,2.2-4.5,5.8c0,3.7,1.7,5.9,4.4,5.9c1.4,0,2.5-0.6,3.4-1.6l1.6,1.8c-1.4,1.6-3.1,2.4-5.2,2.4
		C510.2,138.9,507,136,507,130.5z"/>
	<path class="st2" d="M522,135.4V121h3v14.6c0,0.7,0.3,1,0.6,1c0.2,0,0.2,0,0.5,0l0.3,2.2c-0.3,0.2-0.8,0.3-1.5,0.3
		C522.7,138.9,522,137.6,522,135.4z"/>
	<path class="st2" d="M528.1,135.4c0-2.7,2.1-4,7.2-4.6c0-1.2-0.5-2.3-2.2-2.3c-1.2,0-2.3,0.5-3.4,1.1l-1-1.9c1.3-0.8,3.1-1.6,5-1.6
		c3,0,4.6,1.9,4.6,5.3v7.3h-2.4l-0.2-1.3h-0.1c-1.1,0.9-2.3,1.6-3.7,1.6C529.6,138.9,528.1,137.5,528.1,135.4z M535.3,135.4v-2.6
		c-3.3,0.4-4.3,1.1-4.3,2.4c0,1,0.7,1.4,1.7,1.4C533.7,136.6,534.4,136.2,535.3,135.4z"/>
	<path class="st2" d="M540.5,137.2l1.3-1.7c1.1,0.9,2.2,1.2,3.4,1.2c1.3,0,1.9-0.6,1.9-1.4c0-1-1.2-1.4-2.6-1.9
		c-1.8-0.6-3.4-1.7-3.4-3.6c0-2.1,1.8-3.7,4.5-3.7c1.7,0,3.1,0.6,4.1,1.5l-1.3,1.7c-0.9-0.6-1.8-0.9-2.7-0.9c-1.2,0-1.8,0.6-1.8,1.3
		c0,0.9,0.9,1.2,2.4,1.8c1.9,0.6,3.6,1.6,3.6,3.7c0,2.1-1.7,3.8-4.8,3.8C543.4,138.9,541.7,138.3,540.5,137.2z"/>
	<path class="st2" d="M551.3,137.2l1.3-1.7c1.1,0.9,2.2,1.2,3.4,1.2c1.3,0,1.9-0.6,1.9-1.4c0-1-1.2-1.4-2.6-1.9
		c-1.8-0.6-3.4-1.7-3.4-3.6c0-2.1,1.8-3.7,4.5-3.7c1.7,0,3.1,0.6,4.1,1.5l-1.3,1.7c-0.9-0.6-1.8-0.9-2.7-0.9c-1.2,0-1.8,0.6-1.8,1.3
		c0,0.9,0.9,1.2,2.4,1.8c1.9,0.6,3.6,1.6,3.6,3.7c0,2.1-1.7,3.8-4.8,3.8C554.2,138.9,552.5,138.3,551.3,137.2z"/>
	<path class="st2" d="M563,122.6c0-1,0.7-1.7,1.8-1.7s1.8,0.7,1.8,1.7c0,1-0.7,1.7-1.8,1.7S563,123.6,563,122.6z M563.3,126.4h3
		v12.3h-3V126.4z"/>
	<path class="st2" d="M569,132.5c0-4.1,2.9-6.5,6.2-6.5c1.5,0,2.7,0.6,3.6,1.4l-1.4,1.8c-0.6-0.5-1.2-0.8-2-0.8c-2,0-3.3,1.6-3.3,4
		c0,2.4,1.3,4,3.2,4c1,0,1.8-0.4,2.5-1l1.2,1.9c-1.2,1-2.6,1.5-4,1.5C571.6,138.9,569,136.6,569,132.5z"/>
	<path class="st2" d="M581.7,122.3h5.2c3.6,0,6.3,1.3,6.3,5.1c0,3.6-2.7,5.3-6.2,5.3h-2.3v6h-3V122.3z M586.7,130.3
		c2.4,0,3.5-0.9,3.5-2.9c0-2-1.2-2.7-3.6-2.7h-2v5.6H586.7z"/>
	<path class="st2" d="M596,126.4h2.4l0.2,2.2h0.1c0.9-1.6,2.2-2.5,3.5-2.5c0.6,0,1,0.1,1.4,0.2l-0.6,2.5c-0.4-0.1-0.7-0.1-1.2-0.1
		c-1,0-2.1,0.6-2.9,2.5v7.4h-3V126.4z"/>
	<path class="st2" d="M604.3,132.5c0-4,2.8-6.4,5.7-6.4c3.3,0,5.1,2.4,5.1,5.8c0,0.6,0,1-0.1,1.5h-7.7c0.3,2,1.6,3.2,3.5,3.2
		c1,0,2-0.3,2.8-0.8l1,1.8c-1.1,0.8-2.6,1.3-4.2,1.3C607,138.9,604.3,136.6,604.3,132.5z M612.5,131.2c0-1.8-0.8-2.8-2.4-2.8
		c-1.4,0-2.6,1-2.8,2.8H612.5z"/>
	<path class="st2" d="M616.6,137.2l1.3-1.7c1.1,0.9,2.2,1.2,3.4,1.2c1.3,0,1.9-0.6,1.9-1.4c0-1-1.2-1.4-2.6-1.9
		c-1.8-0.6-3.4-1.7-3.4-3.6c0-2.1,1.8-3.7,4.5-3.7c1.7,0,3.1,0.6,4.1,1.5l-1.3,1.7c-0.9-0.6-1.8-0.9-2.7-0.9c-1.2,0-1.8,0.6-1.8,1.3
		c0,0.9,0.9,1.2,2.4,1.8c1.9,0.6,3.6,1.6,3.6,3.7c0,2.1-1.7,3.8-4.8,3.8C619.5,138.9,617.8,138.3,616.6,137.2z"/>
	<path class="st2" d="M627.4,137.2l1.3-1.7c1.1,0.9,2.2,1.2,3.4,1.2c1.3,0,1.9-0.6,1.9-1.4c0-1-1.2-1.4-2.6-1.9
		c-1.8-0.6-3.4-1.7-3.4-3.6c0-2.1,1.8-3.7,4.5-3.7c1.7,0,3.1,0.6,4.1,1.5l-1.3,1.7c-0.9-0.6-1.8-0.9-2.7-0.9c-1.2,0-1.8,0.6-1.8,1.3
		c0,0.9,0.9,1.2,2.4,1.8c1.9,0.6,3.6,1.6,3.6,3.7c0,2.1-1.7,3.8-4.8,3.8C630.3,138.9,628.6,138.3,627.4,137.2z"/>
	<path class="st2" d="M642.9,132.5c0-4,2.8-6.4,5.7-6.4c3.3,0,5.1,2.4,5.1,5.8c0,0.6,0,1-0.1,1.5h-7.7c0.3,2,1.6,3.2,3.5,3.2
		c1,0,2-0.3,2.8-0.8l1,1.8c-1.1,0.8-2.6,1.3-4.2,1.3C645.5,138.9,642.9,136.6,642.9,132.5z M651.1,131.2c0-1.8-0.8-2.8-2.4-2.8
		c-1.4,0-2.6,1-2.8,2.8H651.1z"/>
	<path class="st2" d="M655.6,132.5c0-4,2.5-6.5,5.2-6.5c1.4,0,2.2,0.5,3.2,1.4l-0.1-2V121h2.9v17.6h-2.4l-0.2-1.3h-0.1
		c-0.9,0.9-2.1,1.6-3.4,1.6C657.6,138.9,655.6,136.6,655.6,132.5z M663.9,135.2v-5.6c-0.8-0.7-1.6-1-2.4-1c-1.5,0-2.8,1.4-2.8,4
		c0,2.6,1,4,2.8,4C662.3,136.5,663.1,136.1,663.9,135.2z"/>
	<path class="st2" d="M670.2,122.6c0-1,0.7-1.7,1.8-1.7s1.8,0.7,1.8,1.7c0,1-0.7,1.7-1.8,1.7S670.2,123.6,670.2,122.6z M670.5,126.4
		h3v12.3h-3V126.4z"/>
	<path class="st2" d="M677.5,134.5v-5.8h-1.7v-2.2l1.9-0.1l0.3-3.8h2.4v3.8h3.1v2.3h-3.1v5.8c0,1.4,0.6,2.1,1.7,2.1
		c0.4,0,0.9-0.1,1.3-0.2l0.5,2.1c-0.6,0.3-1.5,0.5-2.5,0.5C678.6,138.9,677.5,137.2,677.5,134.5z"/>
	<path class="st2" d="M684.9,132.5c0-4.1,2.8-6.5,5.9-6.5c3,0,5.8,2.4,5.8,6.5c0,4.1-2.8,6.4-5.8,6.4
		C687.7,138.9,684.9,136.6,684.9,132.5z M693.6,132.5c0-2.4-1-4-2.8-4s-2.8,1.6-2.8,4c0,2.4,1,4,2.8,4S693.6,135,693.6,132.5z"/>
	<path class="st2" d="M699.5,126.4h2.4l0.2,2.2h0.1c0.9-1.6,2.2-2.5,3.5-2.5c0.6,0,1,0.1,1.4,0.2l-0.6,2.5c-0.4-0.1-0.7-0.1-1.2-0.1
		c-1,0-2.1,0.6-2.9,2.5v7.4h-3V126.4z"/>
	<path class="st2" d="M706.8,137c0-1.1,0.8-2,1.9-2c1.1,0,1.9,0.9,1.9,2c0,1.1-0.8,2-1.9,2C707.6,138.9,706.8,138.1,706.8,137z"/>
</g>
</svg>
